<?xml version="1.0" encoding="utf-8"?>
<!-- Generator: Adobe Illustrator 16.0.0, SVG Export Plug-In . SVG Version: 6.00 Build 0)  -->
<!DOCTYPE svg PUBLIC "-//W3C//DTD SVG 1.1//EN" "http://www.w3.org/Graphics/SVG/1.1/DTD/svg11.dtd">
<svg version="1.1" xmlns="http://www.w3.org/2000/svg" xmlns:xlink="http://www.w3.org/1999/xlink" x="0px" y="0px"
	 width="19.417px" height="19.834px" viewBox="0 0 19.417 19.834" enable-background="new 0 0 19.417 19.834" xml:space="preserve">
<g id="Layer_1">
	<g>
		<path fill="none" stroke="#8E8279" stroke-width="0.832" stroke-miterlimit="10" d="M3.503,5.338c0-0.29,0.189-0.523,0.422-0.523
			h11.234c0.23,0,0.42,0.233,0.42,0.523l-1.201,11.384c0,0.289-0.311,0.485-0.543,0.485H4.901c-0.232,0-0.422-0.236-0.422-0.525
			L3.503,5.338z"/>
		<path fill="#8E8279" stroke="#8E8279" stroke-width="0.4535" stroke-miterlimit="10" d="M7.597,4.339
			c-0.01-0.105-0.01-0.13-0.01-0.2c0-1.059,0.873-1.916,1.953-1.916c1.082,0,1.957,0.857,1.957,1.916c0,0.066-0.008,0.134-0.012,0.2
			h0.387c0.01-0.083,0.018-0.166,0.018-0.251c0-1.176-1.051-2.129-2.35-2.129c-1.295,0-2.348,0.953-2.348,2.129
			c0,0.085,0.01,0.168,0.018,0.251H7.597z"/>
		<path fill="#8E8279" d="M17.491,4.955c0,0.158-0.145,0.286-0.322,0.286H1.917c-0.18,0-0.324-0.128-0.324-0.286v-0.28
			c0-0.159,0.145-0.288,0.324-0.288h15.252c0.178,0,0.322,0.129,0.322,0.288V4.955z"/>
		<path fill="#8E8279" d="M9.38,14.873c-0.133,0-0.242-0.072-0.242-0.16V7.165c0-0.089,0.109-0.16,0.242-0.16h0.236
			c0.135,0,0.242,0.071,0.242,0.16v7.548c0,0.088-0.107,0.16-0.242,0.16H9.38z"/>
		<path fill="#8E8279" d="M6.772,14.939c-0.137,0.009-0.252-0.056-0.256-0.145L6.011,7.198C6.005,7.108,6.108,7.029,6.245,7.02
			l0.242-0.016c0.135-0.01,0.248,0.057,0.258,0.145l0.504,7.598c0.006,0.088-0.1,0.168-0.236,0.177L6.772,14.939z"/>
		<path fill="#8E8279" d="M11.901,14.939c0.135,0.009,0.25-0.056,0.256-0.145l0.506-7.597c0.004-0.09-0.1-0.169-0.234-0.179
			l-0.242-0.016c-0.135-0.01-0.25,0.057-0.26,0.145l-0.502,7.598c-0.008,0.088,0.1,0.168,0.236,0.177L11.901,14.939z"/>
	</g>
</g>
<g id="Layer_2">
</g>
</svg>
