<?xml version="1.0" encoding="utf-8"?>
<!-- Generator: Adobe Illustrator 16.0.0, SVG Export Plug-In . SVG Version: 6.00 Build 0)  -->
<!DOCTYPE svg PUBLIC "-//W3C//DTD SVG 1.1//EN" "http://www.w3.org/Graphics/SVG/1.1/DTD/svg11.dtd">
<svg version="1.1" xmlns="http://www.w3.org/2000/svg" xmlns:xlink="http://www.w3.org/1999/xlink" x="0px" y="0px"
	 width="14.813px" height="15.25px" viewBox="0 0 14.813 15.25" enable-background="new 0 0 14.813 15.25" xml:space="preserve">
<g id="Layer_1">
	<g>
		<g>
			<path fill="#51443B" d="M5.905,6.389c-0.122,0-0.23-0.045-0.325-0.133C5.486,6.168,5.438,6.054,5.438,5.911
				c0-0.192,0.091-0.452,0.271-0.778s0.452-0.599,0.814-0.817s0.789-0.327,1.283-0.327c0.677,0,1.212,0.194,1.608,0.583
				c0.396,0.389,0.593,0.855,0.593,1.4c0,0.308-0.069,0.592-0.208,0.854C9.662,7.089,9.389,7.416,8.979,7.809S8.32,8.471,8.23,8.62
				C8.142,8.77,8.078,9.001,8.041,9.315S7.859,9.787,7.607,9.787c-0.289,0-0.434-0.181-0.434-0.543c0-0.335,0.058-0.636,0.175-0.902
				c0.116-0.268,0.368-0.576,0.756-0.926c0.388-0.351,0.644-0.612,0.771-0.787c0.127-0.174,0.191-0.39,0.191-0.646
				c0-0.335-0.126-0.622-0.376-0.862C8.439,4.88,8.125,4.76,7.746,4.76c-0.686,0-1.139,0.395-1.359,1.182
				C6.282,6.239,6.121,6.389,5.905,6.389z M7.133,11.105c0-0.158,0.056-0.294,0.167-0.405c0.112-0.111,0.247-0.167,0.406-0.167
				c0.155,0,0.289,0.056,0.401,0.167c0.111,0.111,0.167,0.247,0.167,0.405c0,0.156-0.056,0.291-0.167,0.404
				c-0.112,0.113-0.246,0.17-0.401,0.17c-0.159,0-0.294-0.057-0.406-0.17C7.188,11.396,7.133,11.262,7.133,11.105z"/>
		</g>
		<circle fill="none" stroke="#51443B" stroke-width="0.3993" stroke-miterlimit="10" cx="7.698" cy="7.625" r="5.81"/>
	</g>
</g>
<g id="Layer_2">
</g>
</svg>
