<?xml version="1.0" encoding="utf-8"?>
<!-- Generator: Adobe Illustrator 16.0.0, SVG Export Plug-In . SVG Version: 6.00 Build 0)  -->
<!DOCTYPE svg PUBLIC "-//W3C//DTD SVG 1.1//EN" "http://www.w3.org/Graphics/SVG/1.1/DTD/svg11.dtd">
<svg version="1.1" xmlns="http://www.w3.org/2000/svg" xmlns:xlink="http://www.w3.org/1999/xlink" x="0px" y="0px"
	 width="13.219px" height="13.406px" viewBox="0 0 13.219 13.406" enable-background="new 0 0 13.219 13.406" xml:space="preserve">
<g id="Layer_1">
	<path fill="#FFFFFF" d="M10.688,6.147L7.908,3.368C7.637,3.097,7.189,3.056,6.904,3.313C6.6,3.587,6.591,4.057,6.876,4.343
		l1.261,1.26c0.142,0.143,0.041,0.387-0.16,0.387H3.434c-0.384,0-0.729,0.287-0.748,0.671C2.663,7.069,2.989,7.408,3.394,7.408
		h4.583c0.201,0,0.302,0.243,0.16,0.385L6.904,9.024C6.633,9.297,6.594,9.743,6.85,10.028c0.275,0.305,0.744,0.314,1.03,0.029
		l2.808-2.809C10.992,6.944,10.992,6.451,10.688,6.147z"/>
</g>
<g id="Layer_2">
</g>
</svg>
