<?xml version="1.0" encoding="utf-8"?>
<!-- Generator: Adobe Illustrator 16.0.0, SVG Export Plug-In . SVG Version: 6.00 Build 0)  -->
<!DOCTYPE svg PUBLIC "-//W3C//DTD SVG 1.1//EN" "http://www.w3.org/Graphics/SVG/1.1/DTD/svg11.dtd">
<svg version="1.1" xmlns="http://www.w3.org/2000/svg" xmlns:xlink="http://www.w3.org/1999/xlink" x="0px" y="0px"
	 width="13.219px" height="13.406px" viewBox="0 0 13.219 13.406" enable-background="new 0 0 13.219 13.406" xml:space="preserve">
<g id="Layer_1">
	<g>
		<path fill="#2B3990" d="M12.02,10.937c0,0.913-0.74,1.655-1.653,1.655H2.444c-0.914,0-1.654-0.742-1.654-1.655V3.015
			c0-0.914,0.74-1.652,1.654-1.652h7.922c0.913,0,1.653,0.738,1.653,1.652V10.937z"/>
		<path fill-rule="evenodd" clip-rule="evenodd" fill="#FFFFFF" d="M5.265,6.41c0-0.037,0-0.068,0-0.1
			c0-0.365-0.002-0.73,0.005-1.096c0.009-0.354,0.074-0.697,0.228-1.018c0.217-0.446,0.578-0.709,1.044-0.848
			c0.308-0.086,0.622-0.117,0.938-0.117c0.586,0,1.171,0,1.753,0c0.021,0,0.046,0.004,0.072,0.006
			c0.003,0.031,0.004,0.061,0.004,0.086c0,0.498,0,0.993,0.003,1.487c0,0.08-0.022,0.1-0.102,0.1c-0.447-0.002-0.898-0.002-1.347,0
			c-0.094,0-0.188,0.008-0.281,0.026C7.453,4.967,7.369,5.053,7.337,5.18C7.318,5.262,7.302,5.344,7.3,5.426
			C7.296,5.73,7.299,6.035,7.294,6.342C7.293,6.418,7.335,6.414,7.388,6.414c0.602-0.004,1.207-0.004,1.811,0
			c0.038,0,0.073,0.004,0.119,0.006c-0.09,0.517-0.179,1.025-0.269,1.543c-0.585,0-1.165,0-1.751,0c0,1.578,0,3.146,0,4.723
			c-0.68,0-1.352,0-2.031,0c0-1.572,0-3.143,0-4.723c-0.328,0-0.646,0-0.976,0C4.29,7.932,4.288,7.904,4.288,7.877
			c0-0.457,0-0.914-0.002-1.373C4.284,6.434,4.306,6.41,4.377,6.41c0.263,0.006,0.524,0,0.786,0C5.192,6.41,5.225,6.41,5.265,6.41z"
			/>
	</g>
</g>
<g id="Layer_2">
</g>
</svg>
