<?xml version="1.0" encoding="utf-8"?>
<!-- Generator: Adobe Illustrator 16.0.0, SVG Export Plug-In . SVG Version: 6.00 Build 0)  -->
<!DOCTYPE svg PUBLIC "-//W3C//DTD SVG 1.1//EN" "http://www.w3.org/Graphics/SVG/1.1/DTD/svg11.dtd">
<svg version="1.1" xmlns="http://www.w3.org/2000/svg" xmlns:xlink="http://www.w3.org/1999/xlink" x="0px" y="0px"
	 width="13.219px" height="13.406px" viewBox="0 0 13.219 13.406" enable-background="new 0 0 13.219 13.406" xml:space="preserve">
<g id="Layer_1">
	<g>
		<path fill-rule="evenodd" clip-rule="evenodd" fill="#51443B" d="M6.616,1.072c0.757,0.016,1.514,0.021,2.27,0.043
			c0.66,0.02,1.303,0.135,1.873,0.486c0.748,0.459,1.203,1.135,1.347,1.988c0.088,0.512,0.12,1.036,0.126,1.553
			c0.018,1.115,0.012,2.228,0,3.342c-0.006,0.586-0.027,1.176-0.221,1.736c-0.375,1.098-1.145,1.76-2.271,1.977
			c-0.507,0.098-1.036,0.119-1.556,0.127c-1.119,0.018-2.237,0.012-3.358,0c-0.586-0.008-1.175-0.029-1.741-0.223
			c-1.093-0.377-1.758-1.147-1.972-2.272C1.019,9.32,0.996,8.793,0.987,8.273C0.97,7.162,0.977,6.051,0.988,4.936
			c0.008-0.59,0.026-1.174,0.222-1.741c0.376-1.092,1.142-1.76,2.269-1.974c0.511-0.097,1.038-0.108,1.558-0.13
			c0.527-0.02,1.053-0.002,1.578-0.002C6.616,1.083,6.616,1.078,6.616,1.072z M11.245,6.62c-0.008,0-0.014,0-0.022,0
			c0-0.444,0.012-0.888-0.003-1.333c-0.018-0.475-0.026-0.959-0.098-1.434c-0.121-0.781-0.562-1.336-1.334-1.57
			C9.509,2.199,9.21,2.148,8.917,2.14C7.888,2.113,6.859,2.096,5.83,2.105c-0.642,0-1.291,0.015-1.931,0.076
			C2.954,2.262,2.294,2.841,2.12,3.769c-0.096,0.506-0.108,1.03-0.118,1.545C1.985,6.242,1.991,7.172,1.998,8.096
			c0.007,0.441,0.03,0.883,0.071,1.317c0.098,0.944,0.662,1.599,1.594,1.78c0.496,0.094,1.014,0.109,1.521,0.119
			c0.949,0.016,1.9,0.01,2.851,0c0.427-0.004,0.854-0.029,1.278-0.068c0.402-0.041,0.777-0.172,1.101-0.428
			c0.524-0.414,0.728-0.987,0.759-1.623C11.214,8.338,11.223,7.479,11.245,6.62z"/>
		<path fill-rule="evenodd" clip-rule="evenodd" fill="#51443B" d="M6.612,9.594c-1.611,0-2.895-1.279-2.895-2.896
			C3.72,5.094,5.013,3.82,6.633,3.822c1.593,0,2.87,1.295,2.868,2.911C9.501,8.314,8.205,9.594,6.612,9.594z M6.614,4.834
			c-1.028-0.002-1.877,0.842-1.879,1.87c-0.006,1.026,0.84,1.875,1.868,1.88c1.028,0.004,1.88-0.84,1.884-1.869
			C8.491,5.689,7.646,4.838,6.614,4.834z"/>
		<path fill-rule="evenodd" clip-rule="evenodd" fill="#51443B" d="M10.292,3.708c0,0.375-0.307,0.684-0.679,0.678
			c-0.37-0.004-0.675-0.305-0.68-0.674c-0.003-0.371,0.302-0.68,0.68-0.68C9.996,3.033,10.292,3.322,10.292,3.708z"/>
	</g>
</g>
<g id="Layer_2">
</g>
</svg>
