<?xml version="1.0" encoding="utf-8"?>
<!-- Generator: Adobe Illustrator 16.0.0, SVG Export Plug-In . SVG Version: 6.00 Build 0)  -->
<!DOCTYPE svg PUBLIC "-//W3C//DTD SVG 1.1//EN" "http://www.w3.org/Graphics/SVG/1.1/DTD/svg11.dtd">
<svg version="1.1" id="Layer_1" xmlns="http://www.w3.org/2000/svg" xmlns:xlink="http://www.w3.org/1999/xlink" x="0px" y="0px"
	 width="13.75px" height="12.813px" viewBox="0 0 13.75 12.813" enable-background="new 0 0 13.75 12.813" xml:space="preserve">
<g>
	<path fill="none" d="M8.961,9.131c0.168-0.142,0.323-0.295,0.467-0.459c0.01-0.012,0.02-0.023,0.029-0.035
		c0.139-0.163,0.267-0.335,0.379-0.521l0,0c0.38-0.625,0.61-1.35,0.61-2.135c0-2.279-1.851-4.131-4.132-4.131
		c-2.282,0-4.132,1.852-4.132,4.131c0,2.283,1.85,4.133,4.132,4.133C7.327,10.114,8.242,9.735,8.961,9.131L8.961,9.131z"/>
	<path fill="#8E8279" d="M11.883,10.024l-1.512-1.441c0.482-0.752,0.771-1.641,0.771-2.6c0-2.666-2.162-4.828-4.828-4.828
		S1.486,3.317,1.486,5.983s2.161,4.827,4.827,4.827c1.205,0,2.293-0.457,3.139-1.188l1.474,1.405
		c0.277,0.264,0.716,0.254,0.98-0.023C12.17,10.728,12.16,10.288,11.883,10.024z M2.183,5.981c0-2.279,1.85-4.131,4.132-4.131
		c2.281,0,4.132,1.852,4.132,4.131c0,0.785-0.23,1.51-0.61,2.135l0,0c-0.112,0.186-0.24,0.357-0.379,0.521
		c-0.01,0.012-0.02,0.023-0.029,0.035C9.284,8.836,9.129,8.989,8.961,9.131l0,0c-0.719,0.604-1.634,0.983-2.646,0.983
		C4.032,10.114,2.183,8.265,2.183,5.981z"/>
</g>
</svg>
