<?xml version="1.0" encoding="utf-8"?>
<!-- Generator: Adobe Illustrator 16.0.0, SVG Export Plug-In . SVG Version: 6.00 Build 0)  -->
<!DOCTYPE svg PUBLIC "-//W3C//DTD SVG 1.1//EN" "http://www.w3.org/Graphics/SVG/1.1/DTD/svg11.dtd">
<svg version="1.1" id="Layer_1" xmlns="http://www.w3.org/2000/svg" xmlns:xlink="http://www.w3.org/1999/xlink" x="0px" y="0px"
	 width="15.125px" height="12.813px" viewBox="0 0 15.125 12.813" enable-background="new 0 0 15.125 12.813" xml:space="preserve">
<g>
	<path fill="none" stroke="#8E8279" stroke-width="0.7076" stroke-miterlimit="10" d="M14.027,11.428c0,0.193-0.205,0.35-0.457,0.35
		H1.373c-0.252,0-0.457-0.156-0.457-0.35l1.305-7.584c0-0.191,0.338-0.323,0.59-0.323h9.699c0.252,0,0.457,0.157,0.457,0.35
		L14.027,11.428z"/>
	<g>
		<path fill="#8E8279" stroke="#8E8279" stroke-width="0.2359" stroke-miterlimit="10" d="M5.361,4.25
			C5.35,4.081,5.35,4.043,5.35,3.929c0-1.691,0.949-3.063,2.121-3.063c1.174,0,2.125,1.371,2.125,3.063
			c0,0.108-0.008,0.214-0.014,0.321h0.42c0.012-0.133,0.02-0.266,0.02-0.402c0-1.879-1.141-3.401-2.551-3.401
			c-1.406,0-2.549,1.522-2.549,3.401c0,0.137,0.01,0.27,0.02,0.402H5.361z"/>
		<path fill="#8E8279" d="M5.486,4.358C5.492,4.424,5.445,4.48,5.381,4.486l-0.42,0.041C4.896,4.532,4.84,4.484,4.834,4.42
			l-0.01-0.089C4.818,4.266,4.865,4.209,4.932,4.203l0.418-0.04C5.414,4.158,5.473,4.206,5.479,4.27L5.486,4.358z"/>
		<path fill="#8E8279" d="M9.445,4.406C9.439,4.472,9.486,4.529,9.553,4.535l0.418,0.039c0.066,0.006,0.125-0.042,0.129-0.106
			l0.008-0.089c0.006-0.064-0.041-0.123-0.105-0.129l-0.42-0.039C9.518,4.206,9.459,4.252,9.455,4.318L9.445,4.406z"/>
	</g>
</g>
</svg>
