<?xml version="1.0" encoding="utf-8"?>
<!-- Generator: Adobe Illustrator 16.0.0, SVG Export Plug-In . SVG Version: 6.00 Build 0)  -->
<!DOCTYPE svg PUBLIC "-//W3C//DTD SVG 1.1//EN" "http://www.w3.org/Graphics/SVG/1.1/DTD/svg11.dtd">
<svg version="1.1" id="Layer_1" xmlns="http://www.w3.org/2000/svg" xmlns:xlink="http://www.w3.org/1999/xlink" x="0px" y="0px"
	 width="12.625px" height="13.042px" viewBox="0 0 12.625 13.042" enable-background="new 0 0 12.625 13.042" xml:space="preserve">
<g>
	<path fill="none" stroke="#8E8279" stroke-miterlimit="10" d="M11.799,11.077c-0.002-2.352-1.729-4.321-4.057-4.859
		C7.362,6.431,6.932,6.562,6.463,6.562c-0.465,0-0.896-0.131-1.277-0.344c-2.326,0.54-4.055,2.508-4.055,4.859H1.124l0,0
		c0,0.047,0.008,0.09,0.016,0.134c0.01,0.063,0.027,0.125,0.049,0.183c0.131,0.301,0.436,0.513,0.795,0.513h8.965
		c0.357,0,0.662-0.212,0.791-0.513c0.027-0.061,0.043-0.125,0.053-0.191c0.006-0.041,0.014-0.082,0.014-0.123v-0.002H11.799z"/>
	<circle fill="none" stroke="#8E8279" stroke-miterlimit="10" cx="6.464" cy="3.894" r="2.599"/>
</g>
</svg>
