<?xml version="1.0" encoding="utf-8"?>
<!-- Generator: Adobe Illustrator 16.0.0, SVG Export Plug-In . SVG Version: 6.00 Build 0)  -->
<!DOCTYPE svg PUBLIC "-//W3C//DTD SVG 1.1//EN" "http://www.w3.org/Graphics/SVG/1.1/DTD/svg11.dtd">
<svg version="1.1" id="Layer_1" xmlns="http://www.w3.org/2000/svg" xmlns:xlink="http://www.w3.org/1999/xlink" x="0px" y="0px"
	 width="12.625px" height="13.042px" viewBox="0 0 12.625 13.042" enable-background="new 0 0 12.625 13.042" xml:space="preserve">
<g>
	<path fill-rule="evenodd" clip-rule="evenodd" fill="#8E8279" d="M10.237,4.555c0,1.899-3.309,7.179-3.361,7.265l0,0l-0.139,0.244
		H6.719L6.51,12.411L6.264,12.03l-0.121-0.193l-0.018-0.018v-0.018L6.11,11.786c-0.123-0.209-0.91-1.465-1.676-2.912
		c-0.832-1.566-1.67-3.364-1.67-4.319c0-0.246,0.016-0.49,0.066-0.716C2.885,3.611,2.956,3.367,3.042,3.16
		c0.088-0.226,0.211-0.437,0.35-0.646C3.53,2.322,3.688,2.131,3.86,1.957C4.038,1.8,4.229,1.644,4.418,1.503
		C4.629,1.382,4.836,1.26,5.083,1.172c0.221-0.087,0.451-0.157,0.695-0.207c0.225-0.055,0.471-0.07,0.732-0.07l0,0
		c0.242,0,0.488,0.016,0.73,0.07c0.244,0.05,0.471,0.12,0.697,0.207c0.227,0.088,0.438,0.21,0.643,0.331
		C8.792,1.644,8.983,1.8,9.141,1.957c0.348,0.349,0.627,0.75,0.818,1.203c0.088,0.19,0.158,0.401,0.189,0.61
		c0.035,0.121,0.055,0.243,0.07,0.365h0.018v0.279V4.555z M6.51,10.757c0.154-0.262,0.365-0.609,0.592-1.01
		c0.225-0.4,0.488-0.873,0.75-1.359c0.434-0.82,0.852-1.674,1.15-2.406c0.225-0.592,0.365-1.08,0.365-1.427l0,0l0,0
		c0-0.193-0.018-0.385-0.051-0.56C9.28,3.821,9.227,3.647,9.159,3.472c-0.07-0.157-0.176-0.329-0.264-0.47
		C8.792,2.845,8.672,2.707,8.53,2.566l0,0c-0.137-0.12-0.277-0.244-0.434-0.347C7.938,2.114,7.784,2.026,7.604,1.957
		C7.432,1.887,7.26,1.834,7.067,1.8C6.895,1.764,6.702,1.748,6.51,1.748l0,0c-0.189,0-0.385,0.016-0.578,0.053
		C5.76,1.834,5.588,1.887,5.415,1.957c-0.178,0.069-0.352,0.157-0.49,0.263C4.766,2.322,4.608,2.446,4.471,2.566
		C4.346,2.707,4.229,2.845,4.125,3.001C4.016,3.143,3.93,3.315,3.86,3.472C3.79,3.647,3.721,3.821,3.688,3.995
		c-0.037,0.192-0.053,0.367-0.053,0.56c0,0.382,0.189,0.974,0.469,1.637c0.281,0.697,0.662,1.463,1.045,2.196
		c0.314,0.592,0.664,1.166,0.939,1.672C6.249,10.339,6.387,10.565,6.51,10.757L6.51,10.757z"/>
	<path fill-rule="evenodd" clip-rule="evenodd" fill="#8E8279" d="M6.51,2.845c0.537,0,1.047,0.227,1.412,0.593
		c0.363,0.348,0.592,0.837,0.592,1.393c0,0.54-0.229,1.028-0.592,1.396C7.557,6.573,7.047,6.783,6.51,6.783
		c-0.559,0-1.063-0.21-1.428-0.556C4.713,5.86,4.485,5.372,4.485,4.832c0-0.556,0.229-1.045,0.598-1.393
		C5.448,3.072,5.952,2.845,6.51,2.845L6.51,2.845z M7.522,3.821C7.26,3.578,6.895,3.42,6.51,3.42c-0.4,0-0.768,0.157-1.016,0.4
		C5.237,4.083,5.083,4.432,5.083,4.832c0,0.385,0.154,0.731,0.412,0.994C5.743,6.071,6.11,6.227,6.51,6.227
		c0.385,0,0.75-0.156,1.012-0.402c0.262-0.262,0.416-0.609,0.416-0.994C7.938,4.432,7.784,4.083,7.522,3.821L7.522,3.821z"/>
</g>
</svg>
