<?xml version="1.0" encoding="utf-8"?>
<!-- Generator: Adobe Illustrator 16.0.0, SVG Export Plug-In . SVG Version: 6.00 Build 0)  -->
<!DOCTYPE svg PUBLIC "-//W3C//DTD SVG 1.1//EN" "http://www.w3.org/Graphics/SVG/1.1/DTD/svg11.dtd">
<svg version="1.1" id="Layer_1" xmlns="http://www.w3.org/2000/svg" xmlns:xlink="http://www.w3.org/1999/xlink" x="0px" y="0px"
	 width="12.625px" height="13.042px" viewBox="0 0 12.625 13.042" enable-background="new 0 0 12.625 13.042" xml:space="preserve">
<g>
	<path fill="#8E8279" d="M9.62,3.4c-0.252-0.88-0.754-1.575-1.549-2.043C7.535,1.043,6.955,0.884,6.34,0.856
		c-0.813-0.037-1.574,0.14-2.26,0.585C3.385,1.891,2.934,2.527,2.691,3.313C2.531,3.835,2.461,4.371,2.5,4.918
		c0.025,0.327,0.127,0.64,0.236,0.947C2.988,6.582,3.314,7.265,3.66,7.938c0.711,1.381,1.506,2.715,2.338,4.026
		c0.045,0.072,0.092,0.144,0.145,0.226c0.021-0.032,0.035-0.053,0.049-0.074c0.223-0.358,0.451-0.715,0.672-1.075
		c0.703-1.149,1.377-2.316,1.975-3.526C9.139,6.903,9.422,6.283,9.627,5.63c0.084-0.27,0.16-0.543,0.166-0.827
		C9.805,4.327,9.752,3.858,9.62,3.4z"/>
	<circle fill-rule="evenodd" clip-rule="evenodd" fill="#FFFFFF" cx="6.142" cy="4.708" r="2.015"/>
</g>
</svg>
