<?xml version="1.0" encoding="utf-8"?>
<!-- Generator: Adobe Illustrator 16.0.0, SVG Export Plug-In . SVG Version: 6.00 Build 0)  -->
<!DOCTYPE svg PUBLIC "-//W3C//DTD SVG 1.1//EN" "http://www.w3.org/Graphics/SVG/1.1/DTD/svg11.dtd">
<svg version="1.1" xmlns="http://www.w3.org/2000/svg" xmlns:xlink="http://www.w3.org/1999/xlink" x="0px" y="0px"
	 width="13.219px" height="13.406px" viewBox="0 0 13.219 13.406" enable-background="new 0 0 13.219 13.406" xml:space="preserve">
<g id="Layer_1">
	<g>
		<g>
			<path fill="#BE1E2D" d="M12.225,10.562c0,0.913-0.741,1.655-1.653,1.655H2.649c-0.914,0-1.654-0.742-1.654-1.655V2.64
				c0-0.914,0.74-1.652,1.654-1.652h7.922c0.912,0,1.653,0.738,1.653,1.652V10.562z"/>
			<path fill="#FFFFFF" d="M10.36,5.16c0,0-0.074-0.551-0.303-0.793C9.767,4.049,9.44,4.047,9.29,4.029
				c-1.072-0.08-2.68-0.08-2.68-0.08H6.608c0,0-1.608,0-2.68,0.08C3.78,4.047,3.454,4.049,3.162,4.367
				C2.933,4.609,2.858,5.16,2.858,5.16S2.782,5.805,2.782,6.451v0.078v0.529c0,0.646,0.076,1.291,0.076,1.291S2.933,8.9,3.162,9.143
				c0.292,0.318,0.675,0.309,0.846,0.34C4.62,9.545,6.609,9.564,6.609,9.564S8.218,9.561,9.29,9.48
				c0.15-0.02,0.477-0.02,0.768-0.338C10.286,8.9,10.36,8.35,10.36,8.35s0.078-0.645,0.078-1.291V6.562v-0.11
				C10.438,5.805,10.36,5.16,10.36,5.16z M7.888,6.674L5.819,7.791V6.072V5.549L6.75,6.057L7.888,6.674z"/>
		</g>
		<polygon fill="#BE1E2D" points="5.421,4.834 8.749,6.756 5.421,8.676 		"/>
	</g>
</g>
<g id="Layer_2">
</g>
</svg>
