<?xml version="1.0" encoding="utf-8"?>
<!-- Generator: Adobe Illustrator 16.0.0, SVG Export Plug-In . SVG Version: 6.00 Build 0)  -->
<!DOCTYPE svg PUBLIC "-//W3C//DTD SVG 1.1//EN" "http://www.w3.org/Graphics/SVG/1.1/DTD/svg11.dtd">
<svg version="1.1" xmlns="http://www.w3.org/2000/svg" xmlns:xlink="http://www.w3.org/1999/xlink" x="0px" y="0px"
	 width="36.084px" height="30.417px" viewBox="0 0 36.084 30.417" enable-background="new 0 0 36.084 30.417" xml:space="preserve">
<g id="Layer_1">
	<g>
		<path fill="#8E8279" d="M33.757,4.492c0,0.318-0.205,0.576-0.458,0.576H3.17c-0.254,0-0.459-0.258-0.459-0.576v-1.26
			c0-0.32,0.205-0.578,0.459-0.578h30.129c0.253,0,0.458,0.258,0.458,0.578V4.492z"/>
		<path fill="#8E8279" d="M33.757,15.486c0,0.318-0.205,0.576-0.458,0.576H3.17c-0.254,0-0.459-0.258-0.459-0.576v-1.26
			c0-0.32,0.205-0.578,0.459-0.578h30.129c0.253,0,0.458,0.258,0.458,0.578V15.486z"/>
		<path fill="#8E8279" d="M33.757,26.48c0,0.318-0.205,0.578-0.458,0.578H3.17c-0.254,0-0.459-0.26-0.459-0.578v-1.26
			c0-0.32,0.205-0.578,0.459-0.578h30.129c0.253,0,0.458,0.258,0.458,0.578V26.48z"/>
	</g>
</g>
<g id="Layer_2">
</g>
</svg>
